<svg width="33" height="33" viewBox="0 0 33 33" fill="none" xmlns="http://www.w3.org/2000/svg">
<path d="M16.1407 30.3021C23.5045 30.3021 29.474 24.3325 29.474 16.9687C29.474 9.60495 23.5045 3.63541 16.1407 3.63541C8.77691 3.63541 2.80737 9.60495 2.80737 16.9687C2.80737 24.3325 8.77691 30.3021 16.1407 30.3021Z" stroke="white" stroke-width="2" stroke-linecap="round" stroke-linejoin="round"/>
<path d="M16.1406 24.9688C20.5589 24.9688 24.1406 21.387 24.1406 16.9688C24.1406 12.5505 20.5589 8.96875 16.1406 8.96875C11.7223 8.96875 8.14062 12.5505 8.14062 16.9688C8.14062 21.387 11.7223 24.9688 16.1406 24.9688Z" stroke="white" stroke-width="2" stroke-linecap="round" stroke-linejoin="round"/>
<path d="M16.1405 19.6354C17.6133 19.6354 18.8072 18.4415 18.8072 16.9688C18.8072 15.496 17.6133 14.3021 16.1405 14.3021C14.6678 14.3021 13.4739 15.496 13.4739 16.9688C13.4739 18.4415 14.6678 19.6354 16.1405 19.6354Z" stroke="white" stroke-width="2" stroke-linecap="round" stroke-linejoin="round"/>
</svg>
