<svg width="33" height="33" viewBox="0 0 33 33" fill="none" xmlns="http://www.w3.org/2000/svg">
<path d="M16.375 26.3021V30.3021" stroke="white" stroke-width="2" stroke-linecap="round" stroke-linejoin="round"/>
<path d="M25.7082 14.3021V16.9688C25.7082 19.4441 24.7248 21.8181 22.9745 23.5684C21.2242 25.3188 18.8502 26.3021 16.3748 26.3021C13.8995 26.3021 11.5255 25.3188 9.77517 23.5684C8.02483 21.8181 7.0415 19.4441 7.0415 16.9688V14.3021" stroke="white" stroke-width="2" stroke-linecap="round" stroke-linejoin="round"/>
<path d="M20.375 7.63541C20.375 5.42628 18.5841 3.63541 16.375 3.63541C14.1659 3.63541 12.375 5.42628 12.375 7.63541V16.9687C12.375 19.1779 14.1659 20.9687 16.375 20.9687C18.5841 20.9687 20.375 19.1779 20.375 16.9687V7.63541Z" stroke="white" stroke-width="2" stroke-linecap="round" stroke-linejoin="round"/>
</svg>
